#!OML:ASF F:\VICON\USERDATA\INSTALL\rory3\rory3.ASF
:FULLY-SPECIFIED
:DEGREES
63
root 0.281113 18.1068 -18.973 -2.89218 0.538087 -3.78164
lowerback 9.03887 -1.24712 1.55867
upperback 0.537077 -1.34446 3.32476
thorax -4.4693 -0.665339 2.75612
lowerneck -16.83 -2.78666 -2.65229
upperneck 19.2207 -3.16516 0.0401055
head 8.8379 -1.67971 0.0567401
rclavicle -1.97542e-014 -2.38542e-015
rhumerus -35.932 -21.1907 -74.5587
rradius 21.8635
rwrist 8.1022
rhand -16.432 23.8768
rfingers 7.12502
rthumb 9.78339 -5.87593
lclavicle -1.97542e-014 -2.38542e-015
lhumerus -29.8029 0.268969 81.6819
lradius 29.315
lwrist 5.9346
lhand -27.5396 21.5999
lfingers 7.12502
lthumb -0.941228 51.5776
rfemur -18.2231 4.59421 27.8454
rtibia 29.0882
rfoot -6.64502 -5.42584
rtoes 8.02164
lfemur -1.14345 -1.01642 -16.5398
ltibia 59.6917
lfoot 17.3561 -15.997
ltoes 4.19208
64
root 0.276359 18.1288 -18.7964 -2.89615 0.381149 -4.05979
lowerback 9.03233 -1.26738 1.85544
upperback 0.355794 -1.32939 3.43063
thorax -4.66019 -0.662052 2.70225
lowerneck -15.9441 -2.74782 -2.88916
upperneck 18.9708 -3.09922 0.130011
head 8.59794 -1.65853 0.148353
rclavicle 2.19409e-014 -9.54166e-015
rhumerus -35.8144 -20.5655 -74.6268
rradius 21.754
rwrist 8.08537
rhand -16.1564 24.1179
rfingers 7.12502
rthumb 10.0493 -5.62212
lclavicle 2.19409e-014 -9.54166e-015
lhumerus -30.5011 0.756697 81.755
lradius 29.1559
lwrist 5.5282
lhand -28.1328 18.173
lfingers 7.12502
lthumb -1.51416 48.1474
rfemur -17.5176 4.7194 28.2499
rtibia 29.0828
rfoot -7.32444 -5.43374
rtoes 7.2814
lfemur -2.47731 -0.568639 -16.084
ltibia 61.4289
lfoot 15.9094 -16.0287
ltoes 8.49957
65
root 0.273513 18.1389 -18.618 -2.9499 0.270751 -4.21787
lowerback 9.2395 -1.20136 2.07638
upperback 0.202948 -1.20284 3.43655
thorax -4.94522 -0.603493 2.57765
lowerneck -15.5797 -2.73302 -2.88171
upperneck 19.0385 -3.09076 0.115235
head 8.55473 -1.65711 0.147706
rclavicle 1.9133e-014 -6.36111e-015
rhumerus -35.7108 -19.8808 -74.9745
rradius 21.944
rwrist 7.77389
rhand -15.822 24.2375
rfingers 7.12502
rthumb 10.3719 -5.48668
lclavicle 1.9133e-014 -6.36111e-015
lhumerus -30.8862 1.02544 81.8031
lradius 28.8223
lwrist 5.18875
lhand -29.3716 9.24219
lfingers 7.12502
lthumb -2.71059 39.2047
rfemur -16.772 4.66189 28.5246
rtibia 29.0142
rfoot -7.77076 -5.33292
rtoes 8.26407
lfemur -3.70497 -0.154483 -15.7931
ltibia 63.0031
lfoot 13.0722 -15.9024
ltoes 8.63951
66
root 0.27159 18.1296 -18.4438 -3.00437 0.112238 -4.41674
lowerback 9.2687 -1.10269 2.33512
upperback 0.255034 -1.04438 3.44058
thorax -4.91631 -0.53114 2.41461
lowerneck -15.6544 -2.76234 -2.5868
upperneck 19.0958 -3.14045 -0.169876
head 8.57811 -1.68913 -0.00407183
rclavicle 3.09359e-015 1.27222e-014
rhumerus -35.2546 -19.3379 -75.5169
rradius 22.1496
rwrist 7.89316
rhand -16.2613 22.6654
rfingers 7.12502
rthumb 9.94803 -7.07951
lclavicle 3.09359e-015 1.27222e-014
lhumerus -30.9135 1.28502 81.84
lradius 28.4312
lwrist 4.73073
lhand -28.531 17.8386
lfingers 7.12502
lthumb -1.89873 47.8099
rfemur -16.0163 4.72703 28.8409
rtibia 28.8699
rfoot -8.20965 -5.3203
rtoes 9.72204
lfemur -4.98491 0.238992 -15.4744
ltibia 64.4904
lfoot 10.2281 -15.3977
ltoes 5.09279
67
root 0.268224 18.1518 -18.2727 -2.96647 -0.0729559 -4.63561
lowerback 9.13914 -1.00793 2.57774
upperback 0.351447 -0.899438 3.51559
thorax -4.74887 -0.463975 2.3319
lowerneck -15.9501 -2.82051 -2.60798
upperneck 19.4396 -3.17717 -0.303329
head 8.7474 -1.72273 -0.0573977
rclavicle -2.23136e-014 1.19271e-014
rhumerus -34.7043 -18.6814 -75.9594
rradius 22.4843
rwrist 7.98249
rhand -16.9282 20.6008
rfingers 7.12502
rthumb 9.30464 -9.17388
lclavicle -2.23136e-014 1.19271e-014
lhumerus -31.0437 1.53994 82.0202
lradius 28.4794
lwrist 4.62765
lhand -28.1806 20.4536
lfingers 7.12502
lthumb -1.56039 50.4276
rfemur -15.3276 4.82097 29.1626
rtibia 28.6701
rfoot -8.56773 -5.49777
rtoes 10.3707
lfemur -6.33476 0.686149 -15.1087
ltibia 65.6796
lfoot 7.66719 -15.08
ltoes 1.59461
68
root 0.264244 18.1782 -18.0988 -2.90092 -0.366508 -4.75025
lowerback 9.07077 -0.983057 2.58623
upperback 0.117937 -0.850952 3.67
thorax -4.95418 -0.439052 2.48618
lowerneck -15.0524 -2.68693 -2.83645
upperneck 19.4301 -2.94518 -0.401025
head 8.58185 -1.64309 -0.0117333
rclavicle -1.33807e-014 -7.95139e-015
rhumerus -34.6667 -17.4128 -76.1851
rradius 22.796
rwrist 7.56566
rhand -16.9969 21.0697
rfingers 7.12502
rthumb 9.23832 -8.70793
lclavicle -1.33807e-014 -7.95139e-015
lhumerus -31.9573 2.19029 82.1965
lradius 28.6502
lwrist 4.4955
lhand -27.7852 22.3348
lfingers 7.12502
lthumb -1.1785 52.3113
rfemur -14.628 5.04208 29.3847
rtibia 28.4382
rfoot -8.95331 -5.82076
rtoes 10.0192
lfemur -7.62387 1.24102 -14.896
ltibia 66.6423
lfoot 4.96003 -15.0984
ltoes -5.95204
69
root 0.263426 18.1951 -17.9249 -2.88748 -0.640119 -4.7299
lowerback 9.00419 -1.20176 2.15893
upperback -0.311674 -1.15062 4.08188
thorax -5.34429 -0.570577 3.20945
lowerneck -13.1337 -2.25998 -3.57172
upperneck 19.0003 -2.2506 -0.469945
head 8.09296 -1.375 0.192828
rclavicle 4.03781e-016 -2.38542e-015
rhumerus -34.8116 -14.8857 -76.3582
rradius 22.9877
rwrist 6.72035
rhand -17.1594 21.696
rfingers 7.12502
rthumb 9.08155 -8.08852
lclavicle 4.03781e-016 -2.38542e-015
lhumerus -33.5104 4.0323 82.2486
lradius 28.6376
lwrist 4.05843
lhand -28.0605 22.8194
lfingers 7.12502
lthumb -1.44437 52.7943
rfemur -13.8388 5.11527 29.4435
rtibia 28.14
rfoot -10.0919 -5.65104
rtoes 8.27002
lfemur -8.7561 1.76216 -14.8749
ltibia 67.4051
lfoot 3.7781 -14.0809
ltoes -10.5475
70
root 0.261151 18.2028 -17.7539 -2.90882 -0.848169 -4.72537
lowerback 8.95021 -0.634428 2.85883
upperback 0.34306 -0.386449 3.44053
thorax -4.66447 -0.217103 2.02464
lowerneck -15.5838 -2.7552 -2.59968
upperneck 19.5395 -3.08612 -0.368561
head 8.71289 -1.68744 -0.06514
rclavicle 7.62836e-015 2.3059e-014
rhumerus -33.4335 -16.8912 -76.9285
rradius 23.0318
rwrist 6.77802
rhand -17.2733 20.3746
rfingers 7.12502
rthumb 8.97159 -9.41466
lclavicle 7.62836e-015 2.3059e-014
lhumerus -31.8855 2.22981 82.3568
lradius 28.3146
lwrist 4.18934
lhand -28.1911 21.0487
lfingers 7.12502
lthumb -1.57045 51.0226
rfemur -13.0983 5.31112 29.5356
rtibia 28.0407
rfoot -11.4683 -5.36421
rtoes 5.00453
lfemur -9.86971 2.18863 -14.834
ltibia 68.0486
lfoot 3.71777 -12.715
ltoes -9.31849
71
root 0.261034 18.2112 -17.5826 -2.90853 -1.05516 -4.77531
lowerback 8.98969 -0.374973 3.20267
upperback 0.575961 -0.0268033 3.18436
thorax -4.44809 -0.0468818 1.51485
lowerneck -16.6155 -2.94071 -2.0878
upperneck 19.8293 -3.42658 -0.448125
head 8.99086 -1.81534 -0.236923
rclavicle 1.66482e-014 1.55052e-014
rhumerus -32.5974 -17.2928 -77.3777
rradius 23.1487
rwrist 6.72445
rhand -17.6065 19.0267
rfingers 7.12502
rthumb 8.65012 -10.7761
lclavicle 1.66482e-014 1.55052e-014
lhumerus -31.4697 1.64055 82.4376
lradius 28.2495
lwrist 4.47575
lhand -27.8275 19.3524
lfingers 7.12502
lthumb -1.21927 49.3286
rfemur -12.4708 5.46234 29.694
rtibia 28.1049
rfoot -11.718 -5.31212
rtoes 5.64254
lfemur -11.0874 2.53592 -14.7647
ltibia 68.5891
lfoot 3.18205 -11.9461
ltoes -10.303
72
root 0.259364 18.2085 -17.4223 -2.88773 -1.23198 -4.66044
lowerback 9.13648 -0.279079 3.13414
upperback 0.512902 0.100401 3.09332
thorax -4.59642 0.0151679 1.44397
lowerneck -16.6205 -2.95833 -2.04547
upperneck 20.0005 -3.45832 -0.467969
head 9.04976 -1.82944 -0.256546
rclavicle 6.33626e-015 -4.77083e-015
rhumerus -32.2483 -16.7418 -77.6969
rradius 23.4588
rwrist 6.31675
rhand -17.7847 19.3361
rfingers 7.12502
rthumb 8.47812 -10.4737
lclavicle 6.33626e-015 -4.77083e-015
lhumerus -31.7464 1.7403 82.5147
lradius 28.1318
lwrist 4.82149
lhand -26.8073 23.8024
lfingers 7.12502
lthumb -0.233924 53.782
rfemur -11.965 5.62193 29.667
rtibia 28.2629
rfoot -11.4462 -5.40164
rtoes 7.04774
lfemur -12.3627 2.86531 -14.8911
ltibia 69.0191
lfoot -1.01792 -12.6249
ltoes -15.4567
73
root 0.255579 18.1986 -17.2663 -2.87225 -1.34009 -4.78831
lowerback 9.39281 -0.190692 3.28634
upperback 0.38659 0.251894 3.05186
thorax -4.87209 0.0835591 1.2983
lowerneck -16.5544 -3.02696 -1.98821
upperneck 20.2549 -3.57665 -0.447676
head 9.12558 -1.87865 -0.275721
rclavicle 1.30452e-014 -3.18055e-015
rhumerus -32.0531 -16.1184 -78.0144
rradius 23.8476
rwrist 5.58134
rhand -17.6614 20.0514
rfingers 7.12502
rthumb 8.59707 -9.75361
lclavicle 1.30452e-014 -3.18055e-015
lhumerus -32.1694 1.56263 82.6739
lradius 28.0444
lwrist 5.29554
lhand -27.2418 23.5597
lfingers 7.12502
lthumb -0.653672 53.5385
rfemur -11.4689 5.82962 29.9061
rtibia 28.4441
rfoot -11.7894 -5.6077
rtoes 6.72956
lfemur -13.6436 3.1482 -14.7134
ltibia 69.335
lfoot -1.19068 -11.1962
ltoes -5.82053
74
root 0.253674 18.1943 -17.0971 -2.71334 -1.39596 -4.88615
lowerback 9.30487 -0.115904 3.42671
upperback 0.355398 0.361719 3.02977
thorax -4.85433 0.134385 1.18149
lowerneck -16.9243 -3.06221 -1.95981
upperneck 20.5648 -3.62281 -0.458143
head 9.30044 -1.8982 -0.299667
rclavicle 1.55922e-014 -7.95139e-015
rhumerus -31.5595 -15.6616 -78.2974
rradius 24.1506
rwrist 5.2617
rhand -17.4903 19.7751
rfingers 7.12502
rthumb 8.76225 -10.023
lclavicle 1.55922e-014 -7.95139e-015
lhumerus -32.4071 1.52067 82.8609
lradius 28.0834
lwrist 5.45535
lhand -27.8737 22.1802
lfingers 7.12502
lthumb -1.26391 52.1562
rfemur -11.1419 5.98942 30.1054
rtibia 28.6407
rfoot -12.4712 -5.89624
rtoes 5.88733
lfemur -14.9799 3.32561 -14.6307
ltibia 69.4354
lfoot -0.232217 -10.3875
ltoes -10.2548
